<?xml version="1.0" encoding="utf-8"?>
<!DOCTYPE svg PUBLIC "-//W3C//DTD SVG 1.1//EN" "http://www.w3.org/Graphics/SVG/1.1/DTD/svg11.dtd">
<svg version="1.1" id="Layer_1" xmlns="http://www.w3.org/2000/svg" xmlns:xlink="http://www.w3.org/1999/xlink" x="0px" y="0px"
	 width="500px" height="182px" viewBox="0 0 500 182" enable-background="new 0 0 500 182" xml:space="preserve">
<g>
	<g>
		<g>
			<path fill="#2C3173" d="M94.729,46.873c7.806,3.575,13.745,8.472,17.96,14.697c4.216,6.215,6.302,13.308,6.302,21.208v81.76
				c0,0.834-0.256,1.529-0.874,2.094c-0.527,0.574-1.211,0.824-2.052,0.824H93.781c-0.816,0-1.521-0.25-2.093-0.824
				c-0.569-0.564-0.82-1.26-0.82-2.094v-7.723c0-0.502-0.161-0.783-0.486-0.883c-0.342-0.041-0.655,0.047-1.01,0.381
				c-7.9,8.707-19.428,13.109-34.425,13.109c-12.167,0-22.115-3.088-29.975-9.219c-7.839-6.129-11.742-15.316-11.742-27.438
				c0-12.602,4.394-22.428,13.196-29.46c8.791-7.037,21.237-10.571,37.228-10.571h25.985c0.787,0,1.228-0.379,1.228-1.218v-5.823
				c0-6.295-1.875-11.186-5.605-14.658c-3.697-3.509-9.302-5.199-16.753-5.199c-6.12,0-11.111,1.076-14.907,3.262
				c-3.8,2.172-6.215,5.197-7.167,9.079c-0.478,1.947-1.607,2.766-3.396,2.417l-23.496-2.899c-0.845-0.12-1.529-0.433-2.102-0.859
				c-0.564-0.406-0.742-0.923-0.61-1.554c1.307-9.897,6.615-17.973,15.925-24.293c9.293-6.279,20.974-9.458,35.027-9.458
				C77.992,41.532,86.956,43.312,94.729,46.873z M82.34,140.771c5.696-4.217,8.527-9.527,8.527-16.002v-11.393
				c0-0.82-0.441-1.215-1.228-1.215H69.243c-8.548,0-15.307,1.619-20.236,4.84c-4.954,3.252-7.402,7.865-7.402,13.857
				c0,5.174,1.875,9.158,5.708,11.998c3.779,2.836,8.679,4.24,14.643,4.24C69.918,147.097,76.682,144.972,82.34,140.771z
				 M211.053,44.375c0.573-0.591,1.274-0.884,2.085-0.884h22.045c0.816,0,1.533,0.292,2.082,0.884
				c0.552,0.546,0.808,1.247,0.808,2.02v118.144c0,0.834-0.255,1.529-0.808,2.094c-0.548,0.574-1.265,0.824-2.082,0.824h-22.045
				c-0.812,0-1.513-0.25-2.085-0.824c-0.573-0.564-0.808-1.26-0.808-2.094v-7.723c0-0.502-0.186-0.836-0.54-0.988
				c-0.292-0.148-0.593,0-0.948,0.486c-6.672,8.563-16.547,12.85-29.826,12.85c-12.29,0-22.618-3.52-30.947-10.641
				c-8.345-7.146-12.521-17.232-12.521-30.367V46.395c0-0.772,0.305-1.473,0.874-2.02c0.552-0.591,1.24-0.884,2.094-0.884h22.28
				c0.861,0,1.475,0.292,2.057,0.884c0.564,0.546,0.874,1.247,0.874,2.02v73.771c0,7.604,2.007,13.639,5.922,18.201
				c3.981,4.543,9.483,6.795,16.605,6.795c7.278,0,13.102-2.252,17.499-6.795c4.344-4.563,6.578-10.598,6.578-18.201V46.395
				C210.246,45.622,210.48,44.921,211.053,44.375z M326.24,45.17c1.311,0.668,1.793,1.882,1.451,3.668l-4.093,21.814
				c-0.173,1.954-1.29,2.52-3.445,1.7c-2.432-0.785-5.263-1.216-8.461-1.216c-2.127,0-3.746,0.072-4.888,0.253
				c-6.78,0.35-12.414,2.691-16.931,7.157c-4.538,4.457-6.825,10.217-6.825,17.361v68.63c0,0.834-0.276,1.529-0.828,2.094
				c-0.573,0.574-1.278,0.824-2.106,0.824H257.83c-0.819,0-1.487-0.25-2.085-0.824c-0.573-0.564-0.841-1.26-0.841-2.094V46.395
				c0-0.772,0.268-1.473,0.841-2.02c0.598-0.591,1.266-0.884,2.085-0.884h22.284c0.828,0,1.533,0.292,2.106,0.884
				c0.552,0.546,0.828,1.247,0.828,2.02V57.31c0,0.657,0.115,1.008,0.384,1.078c0.223,0.107,0.523-0.07,0.824-0.598
				c6.809-10.53,16.258-15.741,28.383-15.741C317.809,42.049,322.379,43.093,326.24,45.17z M441.992,105.13l-0.206,7.521
				c0,1.959-0.96,2.916-2.905,2.916h-75.944c-0.828,0-1.216,0.365-1.216,1.203c0.475,5.35,1.216,8.953,2.16,10.916
				c3.936,11.646,13.361,17.549,28.404,17.729c10.999,0,19.716-4.549,26.207-13.615c0.647-0.941,1.472-1.461,2.44-1.461
				c0.643,0,1.199,0.242,1.669,0.732l15.03,12.398c1.476,1.105,1.715,2.424,0.767,3.857c-4.995,7.135-11.688,12.674-20.038,16.479
				c-8.313,3.91-17.577,5.885-27.77,5.885c-12.623,0-23.314-2.836-32.121-8.531c-8.841-5.654-15.266-13.617-19.325-23.787
				c-3.722-8.75-5.543-20.875-5.543-36.378c0-9.397,0.956-17.009,2.909-22.816c3.231-11.325,9.289-20.256,18.286-26.836
				c8.96-6.501,19.782-9.811,32.39-9.811c31.875,0,49.811,16.683,53.866,49.985C441.72,95.554,441.992,100.112,441.992,105.13z
				 M372.259,70.319c-3.936,2.97-6.763,7.161-8.378,12.459c-0.944,2.771-1.607,6.31-1.913,10.685c-0.333,0.836,0,1.243,0.969,1.243
				h49.25c0.767,0,1.229-0.406,1.229-1.243c-0.354-4.035-0.865-7.126-1.5-9.203c-1.438-5.838-4.286-10.349-8.605-13.606
				c-4.254-3.217-9.636-4.816-16.123-4.816C381.19,65.837,376.257,67.3,372.259,70.319z M458.646,43.186v29.218v40.444v51.689
				c0,0.834,0.26,1.529,0.833,2.094c0.556,0.574,1.261,0.824,2.085,0.824h22.313c0.808,0,1.496-0.25,2.062-0.824
				c0.58-0.564,0.832-1.26,0.832-2.094v-51.689V72.404v-5.972C485.687,46.252,458.646,43.186,458.646,43.186z M458.646,15.178v0.426
				v3.536v24.046c0,0,27.04-3.097,28.124-23.263V19.14v-3.536v-0.426c0-0.769-0.252-1.463-0.832-2.028
				c-0.565-0.569-1.254-0.841-2.062-0.841h-22.313c-0.824,0-1.529,0.272-2.085,0.841C458.906,13.714,458.646,14.409,458.646,15.178z
				"/>
		</g>
	</g>
</g>
</svg>
